<?xml version="1.0" standalone="no"?><!DOCTYPE svg PUBLIC "-//W3C//DTD SVG 1.1//EN" "http://www.w3.org/Graphics/SVG/1.1/DTD/svg11.dtd"><svg t="1494406920772" class="icon" style="" viewBox="0 0 1024 1024" version="1.1" xmlns="http://www.w3.org/2000/svg" p-id="13770" xmlns:xlink="http://www.w3.org/1999/xlink" width="200" height="200"><defs><style type="text/css"></style></defs><path d="M0 1024v-81.771375c95.970772-96.980775 253.448386-199.274556 409.645844-218.590484v-64.522525c-95.79067-36.95261-163.857928-129.544425-163.857928-238.184751V257.389138c0-141.122111 114.631784-255.533884 256.027117-255.533884h20.484544c141.395334 0 256.027118 114.41075 256.027118 255.533884v163.541727c0 101.156888-57.945737 193.685257-143.375432 235.089249 0.740874 27.01119 0 73.466222 0 73.466222 150.297075 27.240411 300.654524 113.124454 389.163347 212.741266v81.771375H0z m983.14757-61.327764c-79.668481-89.157599-253.886361-180.071192-389.163347-204.426902 0 0 0.280386-96.294137 0-122.665761 83.46904-29.506011 143.375431-121.239272 143.375431-214.648708V257.389138c0-118.543883-96.291067-214.648708-215.063147-214.648708h-20.484544c-118.773104 0-215.063147 96.104825-215.063147 214.648708v163.541727c0 100.896968 69.847811 191.68981 163.857929 214.648708v122.665761C310.034149 775.533069 127.33306 875.870288 40.96397 962.672236v20.442588h942.184623v-20.442588z" fill="#999999" p-id="13771"></path></svg>