<?xml version="1.0" standalone="no"?><!DOCTYPE svg PUBLIC "-//W3C//DTD SVG 1.1//EN" "http://www.w3.org/Graphics/SVG/1.1/DTD/svg11.dtd"><svg t="1494407014363" class="icon" style="" viewBox="0 0 1024 1024" version="1.1" xmlns="http://www.w3.org/2000/svg" p-id="2392" xmlns:xlink="http://www.w3.org/1999/xlink" width="200" height="200"><defs><style type="text/css"></style></defs><path d="M196.807876 194.913225C22.174534 369.546567 22.175557 652.68209 196.8089 827.315432s457.769888 174.634366 632.402207 0.002047c174.635389-174.635389 174.635389-457.771935 0.002047-632.405277S371.442242 20.278859 196.807876 194.913225zM777.812483 786.626731c-149.205207 149.205207-391.110699 149.205207-540.315906 0-149.20316-149.20316-149.20316-391.110699 0-540.313859 149.205207-149.204184 391.110699-149.20316 540.314883 0C927.01462 395.518079 927.015643 637.423571 777.812483 786.626731z" p-id="2393" fill="#999999"></path><path d="M422.352749 421.887656l-135.611607 316.508607 316.50963-135.611607 136.455835-317.352835L422.352749 421.887656zM557.83849 557.3867l-90.200348-90.199325 180.232874-89.922009L557.83849 557.3867z" p-id="2394" fill="#999999"></path></svg>