<?xml version="1.0" standalone="no"?><!DOCTYPE svg PUBLIC "-//W3C//DTD SVG 1.1//EN" "http://www.w3.org/Graphics/SVG/1.1/DTD/svg11.dtd"><svg t="1494393659636" class="icon" style="" viewBox="0 0 1024 1024" version="1.1" xmlns="http://www.w3.org/2000/svg" p-id="4537" xmlns:xlink="http://www.w3.org/1999/xlink" width="200" height="200"><defs><style type="text/css"></style></defs><path d="M256 339.2a339.2 256 90 1 0 512 0 339.2 256 90 1 0-512 0Z" fill="#1296db" p-id="4538"></path><path d="M665.6 606.272V601.6H358.4v4.672c30.976 9.92 53.76 37.888 53.76 72.128s-22.784 62.208-53.76 72.128v4.672h307.2v-4.672c-30.976-9.92-53.76-37.888-53.76-72.128s22.784-62.272 53.76-72.128z" fill="#1296db" p-id="4539"></path><path d="M1007.232 1024c10.56-21.312 16.768-43.52 16.768-66.56 0-147.072-318.016-224.64-512-266.24-192 41.6-512 119.168-512 266.24 0 23.04 6.208 45.248 16.768 66.56h990.464z" fill="#1296db" p-id="4540"></path></svg>