<?xml version="1.0" standalone="no"?><!DOCTYPE svg PUBLIC "-//W3C//DTD SVG 1.1//EN" "http://www.w3.org/Graphics/SVG/1.1/DTD/svg11.dtd"><svg t="1494406433070" class="icon" style="" viewBox="0 0 1024 1024" version="1.1" xmlns="http://www.w3.org/2000/svg" p-id="1010" xmlns:xlink="http://www.w3.org/1999/xlink" width="200" height="200"><defs><style type="text/css"></style></defs><path d="M47.793 226.897v394.758c0 76.758 62.138 138.896 138.896 138.896h208.346l7.311 175.449 204.69-175.449h233.931c76.758 0 138.896-62.138 138.896-138.896v-394.758c0-76.758-62.138-138.896-138.896-138.896h-654.274c-76.758 0-138.896 62.138-138.896 138.896zM647.241 446.207c0-36.553 29.241-65.793 65.793-65.793s65.793 29.241 65.793 65.793c0 36.553-29.241 65.793-65.793 65.793-36.553 0-65.793-29.241-65.793-65.793zM446.207 446.207c0-36.553 29.241-65.793 65.793-65.793s65.793 29.241 65.793 65.793c0 36.553-29.241 65.793-65.793 65.793-36.553 0-65.793-29.241-65.793-65.793zM248.829 446.207c0-36.553 29.241-65.793 65.793-65.793s65.793 29.241 65.793 65.793c0 36.553-29.241 65.793-65.793 65.793-36.553 0-65.793-29.241-65.793-65.793z" p-id="1011" fill="#1296db"></path></svg>